<mxfile host="app.diagrams.net" modified="2022-03-24T02:52:26.194Z" agent="5.0 (Macintosh; Intel Mac OS X 10_15_7) AppleWebKit/537.36 (KHTML, like Gecko) Chrome/96.0.4664.110 YaBrowser/22.1.0.2592 Yowser/2.5 Safari/537.36" etag="9VBpjFbHJOpzsk0daAuC" version="17.1.4" type="github">
  <diagram name="Page-1" id="0783ab3e-0a74-02c8-0abd-f7b4e66b4bec">
    <mxGraphModel dx="2594" dy="998" grid="0" gridSize="10" guides="1" tooltips="1" connect="1" arrows="1" fold="1" page="1" pageScale="1" pageWidth="850" pageHeight="1100" background="#ffffff" math="0" shadow="0">
      <root>
        <mxCell id="0" />
        <mxCell id="1" parent="0" />
        <mxCell id="m3EewM7AteCkSyregLN6-136" value="P" style="group" vertex="1" connectable="0" parent="1">
          <mxGeometry x="-176.5" y="41" width="1243.52" height="1059" as="geometry" />
        </mxCell>
        <mxCell id="m3EewM7AteCkSyregLN6-30" value="Покупатель" style="swimlane;html=1;startSize=20;" vertex="1" parent="m3EewM7AteCkSyregLN6-136">
          <mxGeometry x="366.27156743620895" y="0.8810316139767055" width="310.09987849331714" height="933.0124792013311" as="geometry" />
        </mxCell>
        <mxCell id="m3EewM7AteCkSyregLN6-140" style="edgeStyle=orthogonalEdgeStyle;rounded=0;orthogonalLoop=1;jettySize=auto;html=1;entryX=0.5;entryY=0;entryDx=0;entryDy=0;endArrow=open;endFill=0;" edge="1" parent="m3EewM7AteCkSyregLN6-30" source="m3EewM7AteCkSyregLN6-134" target="m3EewM7AteCkSyregLN6-139">
          <mxGeometry relative="1" as="geometry" />
        </mxCell>
        <mxCell id="m3EewM7AteCkSyregLN6-134" value="Создать заказ" style="whiteSpace=wrap;html=1;rounded=1;" vertex="1" parent="m3EewM7AteCkSyregLN6-30">
          <mxGeometry x="80.38725417191519" y="52.86189683860233" width="128.327109367162" height="52.86189683860233" as="geometry" />
        </mxCell>
        <mxCell id="m3EewM7AteCkSyregLN6-142" style="edgeStyle=orthogonalEdgeStyle;rounded=0;orthogonalLoop=1;jettySize=auto;html=1;entryX=0.5;entryY=0;entryDx=0;entryDy=0;endArrow=open;endFill=0;" edge="1" parent="m3EewM7AteCkSyregLN6-30" source="m3EewM7AteCkSyregLN6-139" target="m3EewM7AteCkSyregLN6-141">
          <mxGeometry relative="1" as="geometry" />
        </mxCell>
        <mxCell id="m3EewM7AteCkSyregLN6-139" value="Заказ [создан]" style="rounded=0;whiteSpace=wrap;html=1;" vertex="1" parent="m3EewM7AteCkSyregLN6-30">
          <mxGeometry x="84.40826245443499" y="134.79783693843595" width="120.58323207776427" height="29.07404326123128" as="geometry" />
        </mxCell>
        <mxCell id="m3EewM7AteCkSyregLN6-141" value="Заполнить формы заказа" style="rounded=1;whiteSpace=wrap;html=1;" vertex="1" parent="m3EewM7AteCkSyregLN6-30">
          <mxGeometry x="84.25753341433777" y="200.87520798668885" width="120.58323207776427" height="52.86189683860233" as="geometry" />
        </mxCell>
        <mxCell id="m3EewM7AteCkSyregLN6-150" value="[нужна консультация]" style="text;html=1;strokeColor=none;fillColor=none;align=center;verticalAlign=middle;whiteSpace=wrap;rounded=0;" vertex="1" parent="m3EewM7AteCkSyregLN6-30">
          <mxGeometry x="171.8311057108141" y="349.76955074875207" width="138.26877278250302" height="26.430948419301163" as="geometry" />
        </mxCell>
        <mxCell id="m3EewM7AteCkSyregLN6-153" value="[консультация не требуется]" style="text;html=1;strokeColor=none;fillColor=none;align=center;verticalAlign=middle;whiteSpace=wrap;rounded=0;" vertex="1" parent="m3EewM7AteCkSyregLN6-30">
          <mxGeometry x="9.04374240583232" y="436.1200166389351" width="234.13244228432563" height="26.430948419301163" as="geometry" />
        </mxCell>
        <mxCell id="m3EewM7AteCkSyregLN6-165" style="edgeStyle=orthogonalEdgeStyle;rounded=0;orthogonalLoop=1;jettySize=auto;html=1;endArrow=open;endFill=0;" edge="1" parent="m3EewM7AteCkSyregLN6-30" source="m3EewM7AteCkSyregLN6-157" target="m3EewM7AteCkSyregLN6-160">
          <mxGeometry relative="1" as="geometry">
            <mxPoint x="119.57376235968208" y="814.9542429284526" as="targetPoint" />
            <Array as="points" />
          </mxGeometry>
        </mxCell>
        <mxCell id="m3EewM7AteCkSyregLN6-157" value="" style="rhombus;whiteSpace=wrap;html=1;rounded=1;" vertex="1" parent="m3EewM7AteCkSyregLN6-30">
          <mxGeometry x="110.71209325916591" y="689.8477537437604" width="85.55140624477465" height="70.48252911813644" as="geometry" />
        </mxCell>
        <mxCell id="m3EewM7AteCkSyregLN6-160" value="Оплатить картой" style="whiteSpace=wrap;html=1;rounded=1;" vertex="1" parent="m3EewM7AteCkSyregLN6-30">
          <mxGeometry x="89.4274012061489" y="837.8610648918469" width="128.327109367162" height="52.86189683860233" as="geometry" />
        </mxCell>
        <mxCell id="m3EewM7AteCkSyregLN6-163" value="[онлайн картой]" style="text;html=1;strokeColor=none;fillColor=none;align=center;verticalAlign=middle;whiteSpace=wrap;rounded=0;" vertex="1" parent="m3EewM7AteCkSyregLN6-30">
          <mxGeometry x="49.23271394651475" y="785.8801996672213" width="98.07436208991493" height="26.430948419301163" as="geometry" />
        </mxCell>
        <mxCell id="m3EewM7AteCkSyregLN6-167" style="rounded=0;orthogonalLoop=1;jettySize=auto;html=1;entryX=0.5;entryY=0;entryDx=0;entryDy=0;endArrow=open;endFill=0;" edge="1" parent="m3EewM7AteCkSyregLN6-30" target="m3EewM7AteCkSyregLN6-157">
          <mxGeometry relative="1" as="geometry">
            <mxPoint x="152.73415118106772" y="606.1497504159734" as="sourcePoint" />
            <mxPoint x="159.51695798544148" y="689.8477537437604" as="targetPoint" />
          </mxGeometry>
        </mxCell>
        <mxCell id="m3EewM7AteCkSyregLN6-154" value="Выбрать способ оплаты" style="whiteSpace=wrap;html=1;rounded=1;" vertex="1" parent="m3EewM7AteCkSyregLN6-30">
          <mxGeometry x="93.19803159173755" y="597.1188851913478" width="120.58323207776427" height="51.980865224625624" as="geometry" />
        </mxCell>
        <mxCell id="m3EewM7AteCkSyregLN6-164" value="[оплата при получении]" style="text;html=1;strokeColor=none;fillColor=none;align=center;verticalAlign=middle;whiteSpace=wrap;rounded=0;" vertex="1" parent="m3EewM7AteCkSyregLN6-30">
          <mxGeometry x="166.86709599027947" y="732.1372712146423" width="143.23278250303764" height="26.430948419301163" as="geometry" />
        </mxCell>
        <mxCell id="m3EewM7AteCkSyregLN6-151" value="Оформить заказ" style="whiteSpace=wrap;html=1;rounded=1;" vertex="1" parent="m3EewM7AteCkSyregLN6-30">
          <mxGeometry x="84.07843256379107" y="478.1189683860233" width="120" height="60" as="geometry" />
        </mxCell>
        <mxCell id="m3EewM7AteCkSyregLN6-59" value="Продавец" style="swimlane;html=1;startSize=20;" vertex="1" parent="m3EewM7AteCkSyregLN6-136">
          <mxGeometry x="676.2709599027946" width="275.83414337788577" height="933.8935108153078" as="geometry" />
        </mxCell>
        <mxCell id="m3EewM7AteCkSyregLN6-145" value="Консультация" style="rounded=1;whiteSpace=wrap;html=1;" vertex="1" parent="m3EewM7AteCkSyregLN6-59">
          <mxGeometry x="82.89636260269545" y="49.33777038269551" width="120.58323207776427" height="52.86189683860233" as="geometry" />
        </mxCell>
        <mxCell id="m3EewM7AteCkSyregLN6-170" value="Проверка заказа" style="rounded=1;whiteSpace=wrap;html=1;" vertex="1" parent="m3EewM7AteCkSyregLN6-59">
          <mxGeometry x="70.22904009720537" y="249" width="120" height="60" as="geometry" />
        </mxCell>
        <mxCell id="m3EewM7AteCkSyregLN6-190" value="" style="endArrow=none;endFill=0;endSize=12;html=1;rounded=0;strokeWidth=10;" edge="1" parent="m3EewM7AteCkSyregLN6-59">
          <mxGeometry width="160" relative="1" as="geometry">
            <mxPoint x="63.18904009720537" y="546" as="sourcePoint" />
            <mxPoint x="223.18904009720538" y="546" as="targetPoint" />
          </mxGeometry>
        </mxCell>
        <mxCell id="m3EewM7AteCkSyregLN6-192" style="rounded=0;orthogonalLoop=1;jettySize=auto;html=1;endArrow=none;endFill=0;startArrow=open;startFill=0;" edge="1" parent="m3EewM7AteCkSyregLN6-59">
          <mxGeometry relative="1" as="geometry">
            <mxPoint x="103.22475871448205" y="549.0007820299502" as="sourcePoint" />
            <mxPoint x="80.22904009720537" y="583" as="targetPoint" />
          </mxGeometry>
        </mxCell>
        <mxCell id="m3EewM7AteCkSyregLN6-194" style="rounded=0;orthogonalLoop=1;jettySize=auto;html=1;endArrow=none;endFill=0;startArrow=open;startFill=0;" edge="1" parent="m3EewM7AteCkSyregLN6-59">
          <mxGeometry relative="1" as="geometry">
            <mxPoint x="169.22904009720537" y="549" as="sourcePoint" />
            <mxPoint x="199.22904009720537" y="589" as="targetPoint" />
            <Array as="points" />
          </mxGeometry>
        </mxCell>
        <mxCell id="m3EewM7AteCkSyregLN6-195" style="rounded=0;orthogonalLoop=1;jettySize=auto;html=1;endArrow=none;endFill=0;startArrow=none;startFill=0;" edge="1" parent="m3EewM7AteCkSyregLN6-59">
          <mxGeometry relative="1" as="geometry">
            <mxPoint x="199.22904009720537" y="589" as="sourcePoint" />
            <mxPoint x="199.22904009720537" y="641" as="targetPoint" />
            <Array as="points">
              <mxPoint x="199.22904009720537" y="610" />
            </Array>
          </mxGeometry>
        </mxCell>
        <mxCell id="m3EewM7AteCkSyregLN6-193" style="rounded=0;orthogonalLoop=1;jettySize=auto;html=1;endArrow=none;endFill=0;" edge="1" parent="m3EewM7AteCkSyregLN6-59">
          <mxGeometry relative="1" as="geometry">
            <mxPoint x="80.14475871448201" y="583.0007820299502" as="sourcePoint" />
            <mxPoint x="80.22904009720537" y="636" as="targetPoint" />
          </mxGeometry>
        </mxCell>
        <mxCell id="m3EewM7AteCkSyregLN6-196" value="Оплата [прошла]" style="rounded=0;whiteSpace=wrap;html=1;" vertex="1" parent="m3EewM7AteCkSyregLN6-59">
          <mxGeometry x="5.2288699878492935" y="642.9988685524127" width="120.58323207776427" height="29.07404326123128" as="geometry" />
        </mxCell>
        <mxCell id="m3EewM7AteCkSyregLN6-199" value="Товар [в наличии]" style="rounded=0;whiteSpace=wrap;html=1;" vertex="1" parent="m3EewM7AteCkSyregLN6-59">
          <mxGeometry x="148.24886998784928" y="642.9988685524127" width="120.58323207776427" height="29.07404326123128" as="geometry" />
        </mxCell>
        <mxCell id="m3EewM7AteCkSyregLN6-203" value="&lt;span style=&quot;color: rgb(0 , 0 , 0) ; font-family: &amp;#34;helvetica&amp;#34; ; font-style: normal ; font-weight: 400 ; letter-spacing: normal ; text-align: center ; text-indent: 0px ; text-transform: none ; word-spacing: 0px ; background-color: rgb(248 , 249 , 250) ; display: inline ; float: none&quot;&gt;&lt;font style=&quot;font-size: 11px&quot;&gt;проверка [успешная]&amp;nbsp;&lt;/font&gt;&lt;/span&gt;" style="rounded=0;whiteSpace=wrap;html=1;" vertex="1" parent="m3EewM7AteCkSyregLN6-59">
          <mxGeometry x="77.62886998784938" y="378.99886855241266" width="120.58323207776427" height="29.07404326123128" as="geometry" />
        </mxCell>
        <mxCell id="m3EewM7AteCkSyregLN6-88" value="Склад" style="swimlane;html=1;startSize=20;" vertex="1" parent="m3EewM7AteCkSyregLN6-136">
          <mxGeometry x="952.11" width="291.41" height="934" as="geometry" />
        </mxCell>
        <mxCell id="m3EewM7AteCkSyregLN6-187" style="edgeStyle=orthogonalEdgeStyle;rounded=0;orthogonalLoop=1;jettySize=auto;html=1;entryX=0.5;entryY=0;entryDx=0;entryDy=0;endArrow=open;endFill=0;" edge="1" parent="m3EewM7AteCkSyregLN6-88" source="m3EewM7AteCkSyregLN6-178" target="m3EewM7AteCkSyregLN6-180">
          <mxGeometry relative="1" as="geometry" />
        </mxCell>
        <mxCell id="m3EewM7AteCkSyregLN6-178" value="Сборка заказа" style="rounded=1;whiteSpace=wrap;html=1;" vertex="1" parent="m3EewM7AteCkSyregLN6-88">
          <mxGeometry x="74.38999999999999" y="287" width="120" height="60" as="geometry" />
        </mxCell>
        <mxCell id="m3EewM7AteCkSyregLN6-180" value="Передача в доставку" style="whiteSpace=wrap;html=1;rounded=1;" vertex="1" parent="m3EewM7AteCkSyregLN6-88">
          <mxGeometry x="74.38999999999999" y="453" width="120" height="60" as="geometry" />
        </mxCell>
        <mxCell id="m3EewM7AteCkSyregLN6-205" value="Ведение базы товаров" style="rounded=1;whiteSpace=wrap;html=1;fontSize=11;" vertex="1" parent="m3EewM7AteCkSyregLN6-88">
          <mxGeometry x="74.38999999999999" y="589" width="120" height="60" as="geometry" />
        </mxCell>
        <mxCell id="m3EewM7AteCkSyregLN6-1" value="Пользователь" style="swimlane;html=1;startSize=20;" vertex="1" parent="m3EewM7AteCkSyregLN6-136">
          <mxGeometry x="-1.0048602673147022" y="0.8810316139767055" width="367.8692952612393" height="933.0124792013311" as="geometry" />
        </mxCell>
        <mxCell id="m3EewM7AteCkSyregLN6-126" style="edgeStyle=orthogonalEdgeStyle;rounded=0;orthogonalLoop=1;jettySize=auto;html=1;endArrow=open;endFill=0;" edge="1" parent="m3EewM7AteCkSyregLN6-1" source="m3EewM7AteCkSyregLN6-3" target="m3EewM7AteCkSyregLN6-119">
          <mxGeometry relative="1" as="geometry" />
        </mxCell>
        <mxCell id="m3EewM7AteCkSyregLN6-3" value="" style="ellipse;whiteSpace=wrap;html=1;rounded=0;shadow=0;comic=0;labelBackgroundColor=none;strokeWidth=1;fillColor=#000000;fontFamily=Verdana;fontSize=12;align=center;" vertex="1" parent="m3EewM7AteCkSyregLN6-1">
          <mxGeometry x="149.71496092835565" y="35.24126455906822" width="46.62551640340219" height="35.24126455906822" as="geometry" />
        </mxCell>
        <mxCell id="m3EewM7AteCkSyregLN6-119" value="Выбор товара" style="rounded=1;whiteSpace=wrap;html=1;" vertex="1" parent="m3EewM7AteCkSyregLN6-1">
          <mxGeometry x="103.08944452495346" y="123.34442595673877" width="139.87654921020658" height="52.86189683860233" as="geometry" />
        </mxCell>
        <mxCell id="m3EewM7AteCkSyregLN6-124" value="Авторизоваться" style="whiteSpace=wrap;html=1;rounded=1;" vertex="1" parent="m3EewM7AteCkSyregLN6-1">
          <mxGeometry x="16.04088867089525" y="537.4292845257903" width="139.87654921020658" height="52.86189683860233" as="geometry" />
        </mxCell>
        <mxCell id="m3EewM7AteCkSyregLN6-120" value="Добавление товара в корзину&amp;nbsp;" style="rounded=1;whiteSpace=wrap;html=1;" vertex="1" parent="m3EewM7AteCkSyregLN6-1">
          <mxGeometry x="108.86416444647575" y="264.30948419301166" width="128.327109367162" height="52.86189683860233" as="geometry" />
        </mxCell>
        <mxCell id="m3EewM7AteCkSyregLN6-121" value="" style="edgeStyle=orthogonalEdgeStyle;rounded=0;orthogonalLoop=1;jettySize=auto;html=1;endArrow=open;endFill=0;" edge="1" parent="m3EewM7AteCkSyregLN6-1" source="m3EewM7AteCkSyregLN6-119" target="m3EewM7AteCkSyregLN6-120">
          <mxGeometry relative="1" as="geometry" />
        </mxCell>
        <mxCell id="m3EewM7AteCkSyregLN6-132" style="edgeStyle=orthogonalEdgeStyle;rounded=0;orthogonalLoop=1;jettySize=auto;html=1;endArrow=open;endFill=0;" edge="1" parent="m3EewM7AteCkSyregLN6-1">
          <mxGeometry relative="1" as="geometry">
            <mxPoint x="211.4830762370829" y="405.30978369384354" as="sourcePoint" />
            <mxPoint x="260.9317890465627" y="537.4292845257903" as="targetPoint" />
            <Array as="points">
              <mxPoint x="260.9317890465627" y="405.2745424292845" />
              <mxPoint x="260.9317890465627" y="484.56738768718805" />
            </Array>
          </mxGeometry>
        </mxCell>
        <mxCell id="m3EewM7AteCkSyregLN6-122" value="" style="rhombus;whiteSpace=wrap;html=1;rounded=1;" vertex="1" parent="m3EewM7AteCkSyregLN6-1">
          <mxGeometry x="130.25201600766943" y="370.0332778702163" width="85.55140624477465" height="70.48252911813644" as="geometry" />
        </mxCell>
        <mxCell id="m3EewM7AteCkSyregLN6-123" value="" style="edgeStyle=orthogonalEdgeStyle;rounded=0;orthogonalLoop=1;jettySize=auto;html=1;endArrow=open;endFill=0;" edge="1" parent="m3EewM7AteCkSyregLN6-1" source="m3EewM7AteCkSyregLN6-120" target="m3EewM7AteCkSyregLN6-122">
          <mxGeometry relative="1" as="geometry" />
        </mxCell>
        <mxCell id="m3EewM7AteCkSyregLN6-125" value="" style="edgeStyle=orthogonalEdgeStyle;rounded=0;orthogonalLoop=1;jettySize=auto;html=1;endArrow=open;endFill=0;" edge="1" parent="m3EewM7AteCkSyregLN6-1">
          <mxGeometry relative="1" as="geometry">
            <mxPoint x="134.7434648355201" y="405.2745424292845" as="sourcePoint" />
            <mxPoint x="81.27383593253592" y="537.4292845257903" as="targetPoint" />
            <Array as="points">
              <mxPoint x="81.27383593253592" y="405.2745424292845" />
            </Array>
          </mxGeometry>
        </mxCell>
        <mxCell id="m3EewM7AteCkSyregLN6-131" style="edgeStyle=orthogonalEdgeStyle;rounded=0;orthogonalLoop=1;jettySize=auto;html=1;endArrow=open;endFill=0;" edge="1" parent="m3EewM7AteCkSyregLN6-1" source="m3EewM7AteCkSyregLN6-127">
          <mxGeometry relative="1" as="geometry">
            <mxPoint x="218.15608592417536" y="731.2562396006656" as="targetPoint" />
            <Array as="points">
              <mxPoint x="260.9317890465627" y="731.2562396006656" />
            </Array>
          </mxGeometry>
        </mxCell>
        <mxCell id="m3EewM7AteCkSyregLN6-127" value="Зарегистрироваться" style="whiteSpace=wrap;html=1;rounded=1;" vertex="1" parent="m3EewM7AteCkSyregLN6-1">
          <mxGeometry x="205.32337498745918" y="537.4292845257903" width="128.327109367162" height="52.86189683860233" as="geometry" />
        </mxCell>
        <mxCell id="m3EewM7AteCkSyregLN6-129" value="" style="rhombus;whiteSpace=wrap;html=1;rounded=1;" vertex="1" parent="m3EewM7AteCkSyregLN6-1">
          <mxGeometry x="130.25201600766937" y="696.0149750415974" width="85.55140624477465" height="70.48252911813644" as="geometry" />
        </mxCell>
        <mxCell id="m3EewM7AteCkSyregLN6-130" value="" style="edgeStyle=orthogonalEdgeStyle;rounded=0;orthogonalLoop=1;jettySize=auto;html=1;endArrow=open;endFill=0;" edge="1" parent="m3EewM7AteCkSyregLN6-1" source="m3EewM7AteCkSyregLN6-124">
          <mxGeometry relative="1" as="geometry">
            <mxPoint x="132.6046796794007" y="731.2562396006656" as="targetPoint" />
            <Array as="points">
              <mxPoint x="85.55140624477465" y="731.2562396006656" />
            </Array>
          </mxGeometry>
        </mxCell>
        <mxCell id="m3EewM7AteCkSyregLN6-147" value="[есть в системе]" style="text;html=1;strokeColor=none;fillColor=none;align=center;verticalAlign=middle;whiteSpace=wrap;rounded=0;" vertex="1" parent="m3EewM7AteCkSyregLN6-1">
          <mxGeometry x="26.628797083839608" y="375.31946755407654" width="98.07436208991493" height="26.430948419301163" as="geometry" />
        </mxCell>
        <mxCell id="m3EewM7AteCkSyregLN6-149" value="[нет в системе]" style="text;html=1;strokeColor=none;fillColor=none;align=center;verticalAlign=middle;whiteSpace=wrap;rounded=0;" vertex="1" parent="m3EewM7AteCkSyregLN6-1">
          <mxGeometry x="235.5794410692588" y="375.31946755407654" width="98.07436208991493" height="26.430948419301163" as="geometry" />
        </mxCell>
        <mxCell id="m3EewM7AteCkSyregLN6-135" value="" style="edgeStyle=orthogonalEdgeStyle;rounded=0;orthogonalLoop=1;jettySize=auto;html=1;endArrow=open;endFill=0;" edge="1" parent="m3EewM7AteCkSyregLN6-136" source="m3EewM7AteCkSyregLN6-129" target="m3EewM7AteCkSyregLN6-134">
          <mxGeometry relative="1" as="geometry">
            <Array as="points">
              <mxPoint x="172.8359659781288" y="810.549084858569" />
              <mxPoint x="346.67679222357225" y="810.549084858569" />
              <mxPoint x="346.67679222357225" y="79.2928452579035" />
            </Array>
          </mxGeometry>
        </mxCell>
        <mxCell id="m3EewM7AteCkSyregLN6-169" style="edgeStyle=orthogonalEdgeStyle;rounded=0;orthogonalLoop=1;jettySize=auto;html=1;entryX=1;entryY=0.5;entryDx=0;entryDy=0;endArrow=open;endFill=0;" edge="1" parent="m3EewM7AteCkSyregLN6-136" source="m3EewM7AteCkSyregLN6-145" target="m3EewM7AteCkSyregLN6-141">
          <mxGeometry relative="1" as="geometry">
            <Array as="points">
              <mxPoint x="809" y="228" />
            </Array>
          </mxGeometry>
        </mxCell>
        <mxCell id="m3EewM7AteCkSyregLN6-188" style="edgeStyle=orthogonalEdgeStyle;rounded=0;orthogonalLoop=1;jettySize=auto;html=1;entryX=0;entryY=0.5;entryDx=0;entryDy=0;endArrow=open;endFill=0;" edge="1" parent="m3EewM7AteCkSyregLN6-136" source="m3EewM7AteCkSyregLN6-151" target="m3EewM7AteCkSyregLN6-170">
          <mxGeometry relative="1" as="geometry">
            <Array as="points">
              <mxPoint x="711" y="509" />
              <mxPoint x="711" y="279" />
            </Array>
          </mxGeometry>
        </mxCell>
        <mxCell id="m3EewM7AteCkSyregLN6-204" style="edgeStyle=orthogonalEdgeStyle;rounded=0;orthogonalLoop=1;jettySize=auto;html=1;fontSize=11;startArrow=none;startFill=0;endArrow=open;endFill=0;strokeWidth=1;" edge="1" parent="m3EewM7AteCkSyregLN6-136" source="m3EewM7AteCkSyregLN6-203">
          <mxGeometry relative="1" as="geometry">
            <mxPoint x="1026.5" y="309" as="targetPoint" />
            <Array as="points">
              <mxPoint x="927" y="394" />
              <mxPoint x="927" y="309" />
            </Array>
          </mxGeometry>
        </mxCell>
        <mxCell id="m3EewM7AteCkSyregLN6-206" style="edgeStyle=orthogonalEdgeStyle;rounded=0;orthogonalLoop=1;jettySize=auto;html=1;entryX=0;entryY=0.5;entryDx=0;entryDy=0;fontSize=11;startArrow=none;startFill=0;endArrow=open;endFill=0;strokeWidth=1;" edge="1" parent="m3EewM7AteCkSyregLN6-136" source="m3EewM7AteCkSyregLN6-199" target="m3EewM7AteCkSyregLN6-205">
          <mxGeometry relative="1" as="geometry" />
        </mxCell>
        <mxCell id="m3EewM7AteCkSyregLN6-146" style="edgeStyle=orthogonalEdgeStyle;rounded=0;orthogonalLoop=1;jettySize=auto;html=1;entryX=0;entryY=0.5;entryDx=0;entryDy=0;endArrow=open;endFill=0;" edge="1" parent="1" source="m3EewM7AteCkSyregLN6-143" target="m3EewM7AteCkSyregLN6-145">
          <mxGeometry relative="1" as="geometry" />
        </mxCell>
        <mxCell id="m3EewM7AteCkSyregLN6-152" value="" style="edgeStyle=orthogonalEdgeStyle;rounded=0;orthogonalLoop=1;jettySize=auto;html=1;endArrow=open;endFill=0;" edge="1" parent="1" source="m3EewM7AteCkSyregLN6-143" target="m3EewM7AteCkSyregLN6-151">
          <mxGeometry relative="1" as="geometry" />
        </mxCell>
        <mxCell id="m3EewM7AteCkSyregLN6-143" value="" style="rhombus;whiteSpace=wrap;html=1;rounded=1;" vertex="1" parent="1">
          <mxGeometry x="293.85" y="398" width="80" height="80" as="geometry" />
        </mxCell>
        <mxCell id="m3EewM7AteCkSyregLN6-144" value="" style="edgeStyle=orthogonalEdgeStyle;rounded=0;orthogonalLoop=1;jettySize=auto;html=1;endArrow=open;endFill=0;" edge="1" parent="1" source="m3EewM7AteCkSyregLN6-141" target="m3EewM7AteCkSyregLN6-143">
          <mxGeometry relative="1" as="geometry">
            <Array as="points">
              <mxPoint x="332" y="377" />
              <mxPoint x="332" y="377" />
            </Array>
          </mxGeometry>
        </mxCell>
        <mxCell id="m3EewM7AteCkSyregLN6-171" value="Склад" style="swimlane;html=1;startSize=20;" vertex="1" parent="1">
          <mxGeometry x="1067.02" y="41" width="291.41" height="934" as="geometry" />
        </mxCell>
        <mxCell id="m3EewM7AteCkSyregLN6-172" value="" style="shape=mxgraph.bpmn.shape;html=1;verticalLabelPosition=bottom;labelBackgroundColor=#ffffff;verticalAlign=top;perimeter=ellipsePerimeter;outline=end;symbol=terminate;rounded=0;shadow=0;comic=0;strokeWidth=1;fontFamily=Verdana;fontSize=12;align=center;" vertex="1" parent="m3EewM7AteCkSyregLN6-171">
          <mxGeometry x="109.66271807105355" y="129.00066555740432" width="46.62551640340219" height="35.24126455906822" as="geometry" />
        </mxCell>
        <mxCell id="m3EewM7AteCkSyregLN6-213" style="edgeStyle=orthogonalEdgeStyle;rounded=0;orthogonalLoop=1;jettySize=auto;html=1;entryX=0.5;entryY=1;entryDx=0;entryDy=0;fontSize=11;startArrow=none;startFill=0;endArrow=open;endFill=0;strokeWidth=1;" edge="1" parent="m3EewM7AteCkSyregLN6-171" source="m3EewM7AteCkSyregLN6-182" target="m3EewM7AteCkSyregLN6-212">
          <mxGeometry relative="1" as="geometry" />
        </mxCell>
        <mxCell id="m3EewM7AteCkSyregLN6-182" value="&amp;nbsp;Доставка заказа" style="whiteSpace=wrap;html=1;rounded=1;" vertex="1" parent="m3EewM7AteCkSyregLN6-171">
          <mxGeometry x="72.98000000000003" y="359" width="120" height="60" as="geometry" />
        </mxCell>
        <mxCell id="m3EewM7AteCkSyregLN6-207" value="Принятие оплаты" style="rounded=1;whiteSpace=wrap;html=1;fontSize=11;" vertex="1" parent="m3EewM7AteCkSyregLN6-171">
          <mxGeometry x="72.98000000000002" y="689" width="120" height="60" as="geometry" />
        </mxCell>
        <mxCell id="m3EewM7AteCkSyregLN6-212" value="Завершение заказ" style="rounded=1;whiteSpace=wrap;html=1;fontSize=11;" vertex="1" parent="m3EewM7AteCkSyregLN6-171">
          <mxGeometry x="72.98000000000002" y="232" width="120" height="60" as="geometry" />
        </mxCell>
        <mxCell id="m3EewM7AteCkSyregLN6-174" value="" style="edgeStyle=orthogonalEdgeStyle;rounded=0;orthogonalLoop=1;jettySize=auto;html=1;endArrow=open;endFill=0;entryX=0.75;entryY=1;entryDx=0;entryDy=0;" edge="1" parent="1">
          <mxGeometry relative="1" as="geometry">
            <mxPoint x="642" y="584" as="sourcePoint" />
            <mxPoint x="641.8372539489674" y="452.07291181364394" as="targetPoint" />
            <Array as="points">
              <mxPoint x="642" y="584" />
            </Array>
          </mxGeometry>
        </mxCell>
        <mxCell id="m3EewM7AteCkSyregLN6-183" value="" style="edgeStyle=orthogonalEdgeStyle;rounded=0;orthogonalLoop=1;jettySize=auto;html=1;endArrow=open;endFill=0;" edge="1" parent="1" source="m3EewM7AteCkSyregLN6-180" target="m3EewM7AteCkSyregLN6-182">
          <mxGeometry relative="1" as="geometry">
            <Array as="points">
              <mxPoint x="1094" y="524" />
              <mxPoint x="1094" y="524" />
            </Array>
          </mxGeometry>
        </mxCell>
        <mxCell id="m3EewM7AteCkSyregLN6-198" style="rounded=0;orthogonalLoop=1;jettySize=auto;html=1;endArrow=open;endFill=0;exitX=1;exitY=0.5;exitDx=0;exitDy=0;edgeStyle=orthogonalEdgeStyle;" edge="1" parent="1" source="m3EewM7AteCkSyregLN6-160">
          <mxGeometry relative="1" as="geometry">
            <mxPoint x="352.50571861727667" y="658.0307820299502" as="sourcePoint" />
            <mxPoint x="540" y="720" as="targetPoint" />
          </mxGeometry>
        </mxCell>
        <mxCell id="m3EewM7AteCkSyregLN6-201" value="" style="edgeStyle=orthogonalEdgeStyle;rounded=0;orthogonalLoop=1;jettySize=auto;html=1;endArrow=open;endFill=0;strokeWidth=1;" edge="1" parent="1" source="m3EewM7AteCkSyregLN6-170">
          <mxGeometry relative="1" as="geometry">
            <mxPoint x="630" y="420" as="targetPoint" />
          </mxGeometry>
        </mxCell>
        <mxCell id="m3EewM7AteCkSyregLN6-208" style="edgeStyle=orthogonalEdgeStyle;rounded=0;orthogonalLoop=1;jettySize=auto;html=1;entryX=-0.03;entryY=0.614;entryDx=0;entryDy=0;entryPerimeter=0;fontSize=11;startArrow=none;startFill=0;endArrow=open;endFill=0;strokeWidth=1;" edge="1" parent="1" source="m3EewM7AteCkSyregLN6-157" target="m3EewM7AteCkSyregLN6-207">
          <mxGeometry relative="1" as="geometry" />
        </mxCell>
        <mxCell id="m3EewM7AteCkSyregLN6-214" style="edgeStyle=orthogonalEdgeStyle;rounded=0;orthogonalLoop=1;jettySize=auto;html=1;fontSize=11;startArrow=none;startFill=0;endArrow=open;endFill=0;strokeWidth=1;" edge="1" parent="1" source="m3EewM7AteCkSyregLN6-212">
          <mxGeometry relative="1" as="geometry">
            <mxPoint x="1200" y="210" as="targetPoint" />
          </mxGeometry>
        </mxCell>
        <mxCell id="m3EewM7AteCkSyregLN6-215" style="edgeStyle=orthogonalEdgeStyle;rounded=0;orthogonalLoop=1;jettySize=auto;html=1;fontSize=11;startArrow=none;startFill=0;endArrow=open;endFill=0;strokeWidth=1;" edge="1" parent="1" source="m3EewM7AteCkSyregLN6-170">
          <mxGeometry relative="1" as="geometry">
            <mxPoint x="1140" y="310" as="targetPoint" />
            <Array as="points">
              <mxPoint x="1140" y="310" />
            </Array>
          </mxGeometry>
        </mxCell>
      </root>
    </mxGraphModel>
  </diagram>
</mxfile>
